<?xml version="1.0" encoding="UTF-8" standalone="no"?>
<!-- Created with Inkscape (http://www.inkscape.org/) -->

<svg
   xmlns:dc="http://purl.org/dc/elements/1.1/"
   xmlns:cc="http://creativecommons.org/ns#"
   xmlns:rdf="http://www.w3.org/1999/02/22-rdf-syntax-ns#"
   xmlns:svg="http://www.w3.org/2000/svg"
   xmlns="http://www.w3.org/2000/svg"
   xmlns:sodipodi="http://sodipodi.sourceforge.net/DTD/sodipodi-0.dtd"
   xmlns:inkscape="http://www.inkscape.org/namespaces/inkscape"
   width="130"
   height="130"
   id="svg2"
   version="1.1"
   inkscape:version="0.48.2 r9819"
   sodipodi:docname="toilet_icons.svg">
  <sodipodi:namedview
     id="base"
     pagecolor="#ffffff"
     bordercolor="#666666"
     borderopacity="1.0"
     inkscape:pageopacity="0.0"
     inkscape:pageshadow="2"
     inkscape:zoom="1.979899"
     inkscape:cx="21.135013"
     inkscape:cy="49.295409"
     inkscape:document-units="px"
     inkscape:current-layer="svg2"
     showgrid="false"
     inkscape:window-width="1122"
     inkscape:window-height="626"
     inkscape:window-x="19"
     inkscape:window-y="0"
     inkscape:window-maximized="0"
     showguides="true"
     inkscape:guide-bbox="true" />
  <defs
     id="defs4" />
  <metadata
     id="metadata7">
    <rdf:RDF>
      <cc:Work
         rdf:about="">
        <dc:format>image/svg+xml</dc:format>
        <dc:type
           rdf:resource="http://purl.org/dc/dcmitype/StillImage" />
        <dc:title></dc:title>
      </cc:Work>
    </rdf:RDF>
  </metadata>
  <path
     style="fill:#00aaa1;fill-opacity:1;stroke:none"
     d="m 65,1.765625 -24.6875,35.03125 -24.6875,35.03125 22.65625,0 0,56.406245 53.4375,0 0,-56.406245 22.65625,0 L 89.6875,36.796875 65,1.765625 z m -15.4375,77.375 7.15625,0 c 0.53512,0 0.96875,0.54972 0.96875,1.21875 l 0,16.53125 c 0,0.66903 -0.43363,1.21875 -0.96875,1.21875 l -7.15625,0 c -0.53512,0 -0.96875,-0.54972 -0.96875,-1.21875 l 0,-16.53125 c 0,-0.66903 0.43363,-1.21875 0.96875,-1.21875 z m 20.125,15.875 c 7.39221,0 10.625,0.93662 10.625,2.9375 l -21.78125,0 c 0,-2.00088 3.76403,-2.9375 11.15625,-2.9375 z m 11.75,4.46875 C 78.34594,106.0401 73.78631,103.9658 74,108.48438 c 0.20229,4.27743 1.625,7.90625 1.625,7.90625 l -18.75,0 c 0,0 2.1875,-3.21902 2.1875,-8.28125 0,-4.84283 -6.90625,-8.281255 -6.90625,-8.281255 l 29.28125,-0.34375 z"
     id="path3894"
     inkscape:connector-curvature="0" />
  <path
     style="fill:#ef3e42;fill-opacity:1;stroke:none"
     d="m 65,1.765625 -24.6875,35.03125 -24.6875,35.03125 22.65625,0 0,56.406245 53.4375,0 0,-56.406245 22.65625,0 L 89.6875,36.796875 65,1.765625 z m 0,74.5625 c 11.22248,0 20.375,9.152533 20.375,20.375 0,11.222475 -9.15252,20.375005 -20.375,20.375005 -11.22247,0 -20.375,-9.1525 -20.375,-20.375005 0,-11.222467 9.15253,-20.375 20.375,-20.375 z m 0,5.375 c -3.17918,0 -6.11174,0.98436 -8.53125,2.65625 l 20.875,20.875005 C 79.01562,102.81486 80,99.882318 80,96.703125 c 0,-8.313373 -6.68661,-15 -15,-15 z m -12.34375,6.46875 C 50.98532,90.590954 50,93.524924 50,96.703125 c 0,8.313405 6.68663,15.000005 15,15.000005 3.17921,0 6.11175,-0.98438 8.53125,-2.65625 l -20.875,-20.875005 z"
     id="path3024"
     inkscape:connector-curvature="0" />
  <path
     style="fill:#ef3e42;fill-opacity:1;stroke:none"
     d="m 38.265625,1.7812525 0,56.4062505 -22.625,0 24.65625,35.03125 24.6875,34.999997 24.6875,-34.999997 24.687505,-35.03125 -22.656255,0 0,-56.4062505 -53.4375,0 z m 26.71875,11.1250005 c 11.22247,0 20.375,9.15253 20.375,20.375 0,11.222475 -9.15253,20.40625 -20.375,20.40625 -11.222499,0 -20.375,-9.183773 -20.375,-20.40625 0,-11.22247 9.152501,-20.375 20.375,-20.375 z m 0,5.40625 c -8.313378,0 -14.96875,6.655371 -14.96875,14.96875 0,3.178215 0.954064,6.143422 2.625,8.5625 l 20.875,-20.875 c -2.419481,-1.671876 -5.352065,-2.65625 -8.53125,-2.65625 z m 12.34375,6.4375 -20.875,20.875 c 2.41951,1.671871 5.352066,2.65625 8.53125,2.65625 8.313379,0 15,-6.686614 15,-15 0,-3.179185 -0.984384,-6.11175 -2.65625,-8.53125 z"
     id="path3034"
     inkscape:connector-curvature="0" />
  <path
     style="fill:#00aaa1;fill-opacity:1;stroke:none"
     d="m 38.28125,1.765625 0,56.40625 -22.65625,0 24.6875,35.03125 L 65,128.23437 89.6875,93.203125 l 24.6875,-35.03125 -22.65625,0 0,-56.40625 -53.4375,0 z m 11.25,11.84375 7.1875,0 c 0.53512,0 0.96875,0.51847 0.96875,1.1875 l 0,16.5625 c 0,0.66903 -0.43363,1.21875 -0.96875,1.21875 l -7.1875,0 c -0.53512,0 -0.9375,-0.54972 -0.9375,-1.21875 l 0,-16.5625 c 0,-0.66903 0.40238,-1.1875 0.9375,-1.1875 z m 20.15625,15.875 c 7.39222,0 10.625,0.93662 10.625,2.9375 l -21.8125,0 c 0,-2.00088 3.79529,-2.9375 11.1875,-2.9375 z m 11.71875,4.46875 c -3.09157,6.55571 -7.61995,4.48142 -7.40625,9 0.20229,4.27742 1.625,7.90625 1.625,7.90625 l -18.78125,0 c 0,0 2.21875,-3.21903 2.21875,-8.28125 0,-4.84283 -6.90625,-8.28125 -6.90625,-8.28125 l 29.25,-0.34375 z"
     id="path3059"
     inkscape:connector-curvature="0" />
</svg>
